<svg aria-hidden="true" style="position: absolute; width: 0; height: 0; overflow: hidden;" version="1.1" xmlns="http://www.w3.org/2000/svg" xmlns:xlink="http://www.w3.org/1999/xlink">
<defs>
<symbol id="icon-close" viewBox="0 0 32 32">
<path d="M27.439 0h-22.878c-2.515 0-4.561 2.046-4.561 4.561v22.878c0 2.515 2.046 4.561 4.561 4.561h22.878c2.515 0 4.561-2.046 4.561-4.561v-22.878c0-2.515-2.046-4.561-4.561-4.561zM29.415 27.439c0 1.089-0.886 1.976-1.976 1.976h-22.878c-1.089 0-1.976-0.886-1.976-1.976v-22.878c0-1.089 0.886-1.976 1.976-1.976h22.878c1.089 0 1.976 0.886 1.976 1.976v22.878z"></path>
<path d="M21.817 19.988l-9.805-9.805c-0.505-0.505-1.323-0.505-1.828 0s-0.505 1.323 0 1.828l9.805 9.805c0.252 0.252 0.583 0.379 0.914 0.379s0.662-0.126 0.914-0.379c0.505-0.505 0.505-1.323-0-1.828z"></path>
<path d="M21.817 10.183c-0.505-0.505-1.323-0.505-1.828 0l-9.805 9.805c-0.505 0.505-0.505 1.323 0 1.828 0.252 0.252 0.583 0.379 0.914 0.379s0.662-0.126 0.914-0.379l9.805-9.805c0.505-0.505 0.505-1.323 0-1.828z"></path>
</symbol>
<symbol id="icon-github" viewBox="0 0 32 32">
<path d="M16 3.2c-7.069 0-12.8 5.731-12.8 12.8 0 5.998 4.13 11.017 9.698 12.405-0.060-0.173-0.098-0.373-0.098-0.622v-2.188c-0.519 0-1.39 0-1.609 0-0.876 0-1.654-0.377-2.032-1.076-0.419-0.778-0.492-1.967-1.531-2.694-0.308-0.242-0.074-0.518 0.282-0.481 0.656 0.186 1.2 0.636 1.712 1.303 0.51 0.669 0.75 0.82 1.702 0.82 0.462 0 1.153-0.027 1.804-0.129 0.35-0.889 0.955-1.707 1.694-2.093-4.262-0.438-6.297-2.559-6.297-5.438 0-1.239 0.528-2.438 1.425-3.449-0.294-1.003-0.665-3.047 0.113-3.826 1.918 0 3.077 1.244 3.356 1.58 0.956-0.327 2.005-0.513 3.108-0.513 1.105 0 2.159 0.186 3.117 0.515 0.275-0.334 1.436-1.582 3.358-1.582 0.781 0.78 0.406 2.833 0.109 3.834 0.892 1.008 1.417 2.204 1.417 3.441 0 2.877-2.031 4.996-6.287 5.437 1.171 0.611 2.026 2.329 2.026 3.622v2.916c0 0.111-0.025 0.191-0.037 0.286 4.988-1.748 8.571-6.484 8.571-12.069 0-7.069-5.731-12.8-12.8-12.8z"></path>
</symbol>
<symbol id="icon-gmail" viewBox="0 0 32 32">
<path fill="#4caf50" style="fill: var(--color1, #4caf50)" d="M30 10.8l-3.333 1.833-3.333 3.167v10.867h4.667c1.105 0 2-0.895 2-2v-13.867z"></path>
<path fill="#1e88e5" style="fill: var(--color2, #1e88e5)" d="M2 10.8l2.409 1.14 4.257 3.86v10.867h-4.667c-1.105 0-2-0.895-2-2v-13.867z"></path>
<path fill="#e53935" style="fill: var(--color3, #e53935)" d="M23.333 7.467l-7.333 5.5-7.333-5.5-0.667 3.867 0.667 4.467 7.333 5.5 7.333-5.5 0.667-4.467z"></path>
<path fill="#c62828" style="fill: var(--color4, #c62828)" d="M2 8.199v2.601l6.667 5v-8.333l-2.083-1.561c-0.496-0.372-1.099-0.573-1.719-0.573v0c-1.583 0-2.865 1.283-2.865 2.865z"></path>
<path fill="#fbc02d" style="fill: var(--color5, #fbc02d)" d="M30 8.199v2.601l-6.667 5v-8.333l2.083-1.561c0.496-0.372 1.099-0.573 1.719-0.573v0c1.583 0 2.865 1.283 2.865 2.865z"></path>
</symbol>
<symbol id="icon-heart" viewBox="0 0 32 32">
<path fill="#ff6b08" style="fill: var(--color6, #ff6b08)" d="M16 30.583l-2.24-2.24c-8.32-7.36-13.76-12.32-13.76-18.4 0-4.96 3.84-8.8 8.8-8.8 2.72 0 5.44 1.28 7.2 3.36 1.76-2.080 4.48-3.36 7.2-3.36 4.96 0 8.8 3.84 8.8 8.8 0 6.080-5.44 11.040-13.76 18.4l-2.24 2.24z"></path>
</symbol>
<symbol id="icon-linkedin" viewBox="0 0 32 32">
<path fill="#0288d1" style="fill: var(--color7, #0288d1)" d="M28 24.667c0 1.841-1.492 3.333-3.333 3.333h-17.333c-1.841 0-3.333-1.492-3.333-3.333v-17.333c0-1.841 1.493-3.333 3.333-3.333h17.333c1.841 0 3.333 1.492 3.333 3.333v17.333z"></path>
<path fill="#fff" style="fill: var(--color8, #fff)" d="M8 12.667h3.333v11.333h-3.333zM9.657 11.333h-0.019c-0.995 0-1.638-0.741-1.638-1.667 0-0.946 0.663-1.666 1.676-1.666 1.014 0 1.639 0.72 1.657 1.666 0 0.925-0.643 1.667-1.677 1.667zM24 24h-3.333v-6.066c0-1.465-0.817-2.465-2.128-2.465-1.001 0-1.542 0.675-1.805 1.327-0.096 0.233-0.067 0.879-0.067 1.205v6h-3.333v-11.333h3.333v1.744c0.481-0.744 1.233-1.744 3.159-1.744 2.385 0 4.174 1.5 4.174 4.849l0.001 6.484z"></path>
</symbol>
</defs>
</svg>
